<svg width="400" height="400" viewBox="0 0 400 400" fill="none" xmlns="http://www.w3.org/2000/svg">
<path d="M223.303 191.045H398.357V172.139H258.479L400 0H193.036V400H209.397V18.9055H364.824L223.303 191.045Z" fill="#FF79C6" stroke="#FF79C6" stroke-width="6"/>
<path d="M174.113 400V0L1.52588e-05 0V206.42H37.6018H135.693V188.642H35.4886L15.5312 20.7407H160.216V210.37V400H174.113Z" fill="#FF79C6"/>
<path d="M37.6018 206.42H1.09673e-05V0L174.113 0C174.113 128.724 174.113 388.938 174.113 400H160.216V210.37V20.7407H15.5312L35.4886 188.642M37.6018 206.42L35.4886 188.642M37.6018 206.42H135.693V188.642H35.4886" stroke="#FF79C6" stroke-width="6"/>
</svg>
