<svg width="400" height="400" viewBox="0 0 400 400" fill="none" xmlns="http://www.w3.org/2000/svg">
<path d="M348.73 264.278C333.986 298.272 307.713 326.169 274.33 342.886C236.957 361.601 193.701 364.787 153.989 351.75C114.276 338.712 81.3257 310.508 62.3174 273.283C43.309 236.057 39.7833 192.828 52.5085 153.014C65.2337 113.201 93.1784 80.0297 130.253 60.7296C167.329 41.4295 210.529 37.5644 250.441 49.9765C290.354 62.3886 323.743 90.0719 343.334 126.994C362.924 163.917 367.129 207.085 355.03 247.094L342.763 285.441" stroke="#3B185F" stroke-width="15"/>
<path d="M153.988 351.75C193.701 364.787 236.956 361.601 274.33 342.886C307.713 326.169 333.986 298.272 348.729 264.278" stroke="url(#paint0_linear_7_2)" stroke-width="15"/>
<path d="M41.7985 174.677L24.9754 99.3023L107.88 134.707L41.7985 174.677Z" fill="url(#paint1_linear_7_2)"/>
<path d="M361.694 230.413L298.305 274.528L383.304 304.557L361.694 230.413Z" fill="url(#paint2_linear_7_2)"/>
<path d="M-0.999969 161L400 161L400 246C400 247.105 399.105 248 398 248L1.00003 248C-0.104535 248 -0.999968 247.105 -0.999968 246L-0.999969 161Z" fill="#FEC260"/>
<path d="M58.6693 237.869C57.3489 237.869 56.1937 237.806 55.2034 237.679C54.2386 237.552 53.1849 237.272 52.0423 236.841C50.8997 236.384 49.9222 235.762 49.1097 234.975C48.3226 234.188 47.5228 233.096 46.7103 231.699C45.9232 230.303 45.2884 228.64 44.806 226.71C44.3235 224.755 43.93 222.368 43.6253 219.55C43.3206 216.706 43.1683 213.481 43.1683 209.876C43.1683 205.001 43.4603 200.812 44.0443 197.308C44.6536 193.804 45.4153 191.074 46.3294 189.119C47.2435 187.164 48.4241 185.628 49.8714 184.511C51.3441 183.394 52.7405 182.683 54.0609 182.378C55.4066 182.073 57.0062 181.921 58.8597 181.921C61.221 181.921 63.1634 182.276 64.6868 182.987C64.7122 183.013 64.7503 183.051 64.8011 183.102C64.8519 183.127 64.89 183.165 64.9153 183.216C64.9661 183.241 65.0042 183.305 65.0296 183.406C65.055 183.482 65.0677 183.584 65.0677 183.711L65.0677 188.319C65.0677 188.675 64.9788 188.853 64.8011 188.853C64.7757 188.853 64.6741 188.827 64.4964 188.776C64.3441 188.726 64.1155 188.662 63.8109 188.586C63.5062 188.51 63.1761 188.434 62.8206 188.357C62.4651 188.281 62.0462 188.218 61.5638 188.167C61.1068 188.116 60.6497 188.091 60.1927 188.091C58.9993 188.091 57.9837 188.231 57.1458 188.51C56.3079 188.764 55.4573 189.335 54.5941 190.224C53.7308 191.087 53.0325 192.293 52.4993 193.842C51.9661 195.391 51.5345 197.511 51.2044 200.202C50.8743 202.894 50.7093 206.118 50.7093 209.876C50.7093 213.71 50.8489 216.973 51.1282 219.664C51.4329 222.356 51.8138 224.488 52.2708 226.063C52.7278 227.611 53.3626 228.817 54.1751 229.681C54.9876 230.544 55.8001 231.103 56.6126 231.356C57.4251 231.61 58.4407 231.737 59.6595 231.737C61.4622 231.737 63.0618 231.496 64.4583 231.014C64.4837 231.014 64.5345 231.141 64.6107 231.395C64.7122 231.648 64.763 231.788 64.763 231.814L64.763 236.193C64.763 236.219 64.7122 236.358 64.6107 236.612C64.5345 236.841 64.4837 236.968 64.4583 236.993C62.9095 237.577 60.9798 237.869 58.6693 237.869ZM79.8069 232.042C80.3655 232.372 81.0511 232.537 81.8636 232.537C82.6761 232.537 83.3489 232.372 83.8821 232.042C84.4153 231.687 84.9105 231.026 85.3675 230.062C85.8245 229.071 86.1673 227.586 86.3958 225.606C86.6243 223.6 86.7386 221.073 86.7386 218.026C86.7386 215.056 86.6243 212.593 86.3958 210.638C86.1673 208.683 85.8118 207.223 85.3294 206.258C84.8724 205.268 84.3773 204.595 83.8441 204.239C83.3109 203.884 82.6507 203.706 81.8636 203.706C81.0765 203.706 80.4036 203.884 79.845 204.239C79.3118 204.595 78.804 205.268 78.3216 206.258C77.8646 207.223 77.5218 208.683 77.2933 210.638C77.0648 212.567 76.9505 215.03 76.9505 218.026C76.9505 221.073 77.0521 223.587 77.2552 225.567C77.4837 227.548 77.8265 229.033 78.2835 230.023C78.7659 231.014 79.2737 231.687 79.8069 232.042ZM84.0726 237.603C83.4378 237.679 82.7015 237.717 81.8636 237.717C81.0257 237.717 80.2767 237.679 79.6165 237.603C78.9818 237.526 78.2454 237.336 77.4075 237.031C76.5696 236.727 75.8333 236.308 75.1985 235.774C74.5892 235.241 73.9544 234.48 73.2943 233.489C72.6341 232.499 72.1009 231.331 71.6946 229.985C71.2884 228.64 70.9456 226.951 70.6663 224.92C70.4124 222.863 70.2855 220.565 70.2855 218.026C70.2855 215.487 70.4124 213.215 70.6663 211.209C70.9456 209.178 71.3011 207.489 71.7327 206.144C72.1644 204.798 72.7103 203.643 73.3704 202.678C74.0306 201.688 74.6653 200.939 75.2747 200.431C75.9095 199.897 76.6458 199.491 77.4837 199.212C78.347 198.907 79.0833 198.717 79.6927 198.641C80.3275 198.564 81.0511 198.526 81.8636 198.526C82.6761 198.526 83.387 198.564 83.9964 198.641C84.6312 198.717 85.3675 198.907 86.2054 199.212C87.0433 199.491 87.7669 199.897 88.3763 200.431C89.011 200.939 89.6585 201.688 90.3187 202.678C90.9788 203.643 91.512 204.798 91.9183 206.144C92.3499 207.489 92.6927 209.178 92.9466 211.209C93.2259 213.215 93.3655 215.487 93.3655 218.026C93.3655 220.565 93.2259 222.863 92.9466 224.92C92.6927 226.951 92.3626 228.64 91.9564 229.985C91.5501 231.331 91.0169 232.499 90.3568 233.489C89.722 234.48 89.0872 235.241 88.4525 235.774C87.8431 236.308 87.1194 236.727 86.2816 237.031C85.4437 237.336 84.7073 237.526 84.0726 237.603ZM101.364 237.298C101.059 237.298 100.818 237.184 100.64 236.955C100.488 236.701 100.411 236.193 100.411 235.432L100.411 201.269C100.411 199.745 100.716 198.983 101.326 198.983L102.963 198.983C103.319 198.983 103.611 199.098 103.839 199.326C104.068 199.555 104.245 200.037 104.372 200.773L105.134 205.572C105.185 205.852 105.274 205.991 105.401 205.991C105.502 205.991 105.578 205.864 105.629 205.61C106.061 204.138 106.607 202.906 107.267 201.916C107.952 200.926 108.701 200.202 109.514 199.745C110.326 199.263 111.088 198.945 111.799 198.793C112.535 198.615 113.348 198.526 114.237 198.526C115.633 198.526 116.839 198.78 117.855 199.288C118.87 199.796 119.772 200.659 120.559 201.878C121.371 203.071 121.981 204.772 122.387 206.981C122.793 209.165 122.996 211.844 122.996 215.018L122.996 235.432C122.996 236.193 122.92 236.701 122.768 236.955C122.616 237.184 122.374 237.298 122.044 237.298L117.169 237.298C116.839 237.298 116.598 237.184 116.446 236.955C116.293 236.701 116.217 236.193 116.217 235.432L116.217 214.18C116.217 210.6 115.938 207.959 115.379 206.258C114.846 204.557 113.957 203.706 112.713 203.706C111.139 203.706 109.831 204.734 108.79 206.791C107.749 208.822 107.229 211.374 107.229 214.446L107.229 235.432C107.229 236.193 107.14 236.701 106.962 236.955C106.81 237.184 106.581 237.298 106.277 237.298L101.364 237.298ZM137.012 237.298C136.403 237.298 135.933 236.435 135.603 234.708L128.709 201.421C128.659 201.167 128.633 200.812 128.633 200.355C128.633 199.44 128.824 198.983 129.204 198.983L133.851 198.983C134.486 198.983 134.917 199.745 135.146 201.269L139.488 227.853C139.538 228.106 139.602 228.233 139.678 228.233C139.754 228.233 139.805 228.106 139.83 227.853L143.525 201.269C143.728 199.745 144.185 198.983 144.896 198.983L149.161 198.983C149.542 198.983 149.733 199.415 149.733 200.278C149.733 200.481 149.682 200.85 149.58 201.383L143.106 234.746C142.776 236.447 142.293 237.298 141.659 237.298L137.012 237.298ZM175.555 228.081C175.555 230.899 174.793 233.21 173.27 235.013C171.746 236.815 169.487 237.717 166.491 237.717C165.297 237.717 164.205 237.577 163.215 237.298C162.225 237.044 161.197 236.498 160.13 235.66C159.064 234.822 158.162 233.718 157.426 232.347C156.69 230.95 156.08 229.046 155.598 226.634C155.141 224.196 154.912 221.353 154.912 218.103C154.912 214.827 155.141 211.983 155.598 209.571C156.055 207.134 156.639 205.23 157.35 203.858C158.061 202.462 158.924 201.357 159.94 200.545C160.981 199.707 161.971 199.161 162.91 198.907C163.85 198.653 164.891 198.526 166.034 198.526C172.584 198.526 175.86 204.646 175.86 216.884C175.86 218.661 175.542 219.55 174.908 219.55L161.654 219.55C161.451 219.55 161.349 219.867 161.349 220.502C161.374 224.361 161.831 227.332 162.72 229.414C163.634 231.496 164.954 232.537 166.681 232.537C167.519 232.537 168.217 232.347 168.776 231.966C169.36 231.585 169.791 231.026 170.071 230.29C170.35 229.554 170.54 228.919 170.642 228.386C170.769 227.827 170.87 227.142 170.947 226.329C171.023 225.771 171.239 225.491 171.594 225.491L174.679 225.491C175.263 225.491 175.555 226.151 175.555 227.472L175.555 228.081ZM161.539 215.513L170.261 215.513C170.312 215.513 170.337 215.195 170.337 214.561C170.134 207.299 168.687 203.668 165.995 203.668C164.751 203.668 163.71 204.468 162.872 206.067C162.034 207.667 161.539 210.181 161.387 213.608C161.387 214.878 161.438 215.513 161.539 215.513ZM183.248 237.298C182.969 237.298 182.741 237.057 182.563 236.574C182.385 236.092 182.296 235.457 182.296 234.67L182.296 201.916C182.296 199.961 182.537 198.983 183.02 198.983L184.467 198.983C184.746 198.983 184.962 199.174 185.115 199.555C185.267 199.91 185.432 200.532 185.61 201.421L186.486 206.601C186.536 206.981 186.625 207.172 186.752 207.172C186.854 207.172 186.93 206.981 186.981 206.601C187.742 203.909 188.657 201.916 189.723 200.621C190.789 199.326 191.894 198.653 193.036 198.603L193.646 198.603C194.306 198.603 194.75 198.768 194.979 199.098C195.207 199.428 195.322 199.948 195.322 200.659L195.322 204.468C195.322 205.077 195.271 205.471 195.169 205.648C195.068 205.826 194.89 205.915 194.636 205.915C193.671 205.915 192.998 205.991 192.617 206.144C191.221 206.55 190.18 207.908 189.494 210.219C188.809 212.529 188.466 214.967 188.466 217.531L188.466 234.67C188.466 235.457 188.377 236.092 188.2 236.574C188.022 237.057 187.793 237.298 187.514 237.298L183.248 237.298ZM210.975 237.374C209.959 237.374 209.071 237.311 208.309 237.184C207.573 237.031 206.798 236.714 205.986 236.231C205.173 235.724 204.5 235.038 203.967 234.175C203.459 233.312 203.04 232.106 202.71 230.557C202.38 229.008 202.215 227.167 202.215 225.034L202.215 205.496C202.215 204.988 202.076 204.734 201.796 204.734L199.435 204.734C198.8 204.734 198.483 204.125 198.483 202.906L198.483 200.85C198.483 199.606 198.8 198.983 199.435 198.983L201.796 198.983C202.076 198.983 202.215 198.641 202.215 197.955L202.901 183.14C202.977 181.794 203.307 181.121 203.891 181.121L207.7 181.121C208.334 181.121 208.652 181.794 208.652 183.14L208.652 197.955C208.652 198.641 208.804 198.983 209.109 198.983L213.984 198.983C214.618 198.983 214.936 199.606 214.936 200.85L214.936 202.906C214.936 204.125 214.618 204.734 213.984 204.734L209.109 204.734C208.931 204.734 208.804 204.785 208.728 204.887C208.677 204.963 208.652 205.166 208.652 205.496L208.652 225.148C208.652 226.621 208.741 227.853 208.918 228.843C209.121 229.808 209.401 230.519 209.756 230.976C210.137 231.433 210.505 231.737 210.861 231.89C211.242 232.042 211.699 232.118 212.232 232.118L214.936 232.118C215.621 232.118 215.964 232.588 215.964 233.527L215.964 235.813C215.964 236.854 215.596 237.374 214.86 237.374L210.975 237.374ZM240.834 228.081C240.834 230.899 240.073 233.21 238.549 235.013C237.026 236.815 234.766 237.717 231.77 237.717C230.576 237.717 229.485 237.577 228.494 237.298C227.504 237.044 226.476 236.498 225.409 235.66C224.343 234.822 223.442 233.718 222.705 232.347C221.969 230.95 221.36 229.046 220.877 226.634C220.42 224.196 220.192 221.353 220.192 218.103C220.192 214.827 220.42 211.983 220.877 209.571C221.334 207.134 221.918 205.23 222.629 203.858C223.34 202.462 224.203 201.357 225.219 200.545C226.26 199.707 227.25 199.161 228.19 198.907C229.129 198.653 230.17 198.526 231.313 198.526C237.864 198.526 241.139 204.646 241.139 216.884C241.139 218.661 240.822 219.55 240.187 219.55L226.933 219.55C226.73 219.55 226.628 219.867 226.628 220.502C226.654 224.361 227.111 227.332 227.999 229.414C228.913 231.496 230.234 232.537 231.96 232.537C232.798 232.537 233.496 232.347 234.055 231.966C234.639 231.585 235.071 231.026 235.35 230.29C235.629 229.554 235.82 228.919 235.921 228.386C236.048 227.827 236.15 227.142 236.226 226.329C236.302 225.771 236.518 225.491 236.873 225.491L239.958 225.491C240.542 225.491 240.834 226.151 240.834 227.472L240.834 228.081ZM226.819 215.513L235.54 215.513C235.591 215.513 235.617 215.195 235.617 214.561C235.413 207.299 233.966 203.668 231.275 203.668C230.031 203.668 228.99 204.468 228.152 206.067C227.314 207.667 226.819 210.181 226.666 213.608C226.666 214.878 226.717 215.513 226.819 215.513ZM267.342 237.374C266.326 237.374 265.438 237.311 264.676 237.184C263.94 237.031 263.165 236.714 262.353 236.231C261.54 235.724 260.867 235.038 260.334 234.175C259.826 233.312 259.408 232.106 259.077 230.557C258.747 229.008 258.582 227.167 258.582 225.034L258.582 205.496C258.582 204.988 258.443 204.734 258.163 204.734L255.802 204.734C255.167 204.734 254.85 204.125 254.85 202.906L254.85 200.85C254.85 199.606 255.167 198.983 255.802 198.983L258.163 198.983C258.443 198.983 258.582 198.641 258.582 197.955L259.268 183.14C259.344 181.794 259.674 181.121 260.258 181.121L264.067 181.121C264.701 181.121 265.019 181.794 265.019 183.14L265.019 197.955C265.019 198.641 265.171 198.983 265.476 198.983L270.351 198.983C270.986 198.983 271.303 199.606 271.303 200.85L271.303 202.906C271.303 204.125 270.986 204.734 270.351 204.734L265.476 204.734C265.298 204.734 265.171 204.785 265.095 204.887C265.044 204.963 265.019 205.166 265.019 205.496L265.019 225.148C265.019 226.621 265.108 227.853 265.285 228.843C265.489 229.808 265.768 230.519 266.123 230.976C266.504 231.433 266.872 231.737 267.228 231.89C267.609 232.042 268.066 232.118 268.599 232.118L271.303 232.118C271.989 232.118 272.331 232.588 272.331 233.527L272.331 235.813C272.331 236.854 271.963 237.374 271.227 237.374L267.342 237.374ZM285.89 237.717C284.849 237.717 283.909 237.59 283.072 237.336C282.259 237.107 281.459 236.676 280.672 236.041C279.885 235.381 279.225 234.518 278.692 233.451C278.159 232.385 277.727 230.988 277.397 229.262C277.092 227.51 276.94 225.466 276.94 223.13L276.94 200.85C276.94 200.088 277.016 199.593 277.168 199.364C277.346 199.11 277.6 198.983 277.93 198.983L282.424 198.983C282.729 198.983 282.957 199.11 283.11 199.364C283.287 199.593 283.376 200.088 283.376 200.85L283.376 224.158C283.376 227.18 283.694 229.338 284.328 230.633C284.963 231.902 285.941 232.537 287.261 232.537C288.734 232.537 289.927 231.534 290.841 229.528C291.755 227.497 292.212 225.136 292.212 222.444L292.212 200.85C292.212 200.088 292.288 199.593 292.441 199.364C292.618 199.11 292.872 198.983 293.202 198.983L297.468 198.983C297.798 198.983 298.039 199.11 298.192 199.364C298.369 199.593 298.458 200.088 298.458 200.85L298.458 234.975C298.458 236.523 298.141 237.298 297.506 237.298L296.516 237.298C296.16 237.298 295.868 237.184 295.64 236.955C295.437 236.727 295.272 236.231 295.145 235.47L294.269 230.062C294.193 229.731 294.104 229.566 294.002 229.566C293.901 229.566 293.812 229.719 293.736 230.023C293.101 232.613 292.06 234.543 290.613 235.813C289.165 237.082 287.591 237.717 285.89 237.717ZM315.292 237.717C308.615 237.717 305.276 231.23 305.276 218.255C305.276 205.103 308.526 198.526 315.026 198.526C317.844 198.526 319.926 200.304 321.272 203.858C321.45 204.112 321.551 204.239 321.576 204.239C321.678 204.239 321.729 204.074 321.729 203.744L321.729 185.196C321.729 183.673 322.046 182.911 322.681 182.911L327.404 182.911C328.038 182.911 328.356 183.673 328.356 185.196L328.356 234.746C328.356 236.447 328.051 237.298 327.442 237.298L326.337 237.298C325.779 237.298 325.347 236.536 325.042 235.013C324.357 231.103 323.951 229.122 323.824 229.071C323.747 229.147 323.659 229.3 323.557 229.528C322.871 232.677 321.83 234.835 320.434 236.003C319.037 237.146 317.324 237.717 315.292 237.717ZM321.691 217.836C321.691 213.037 321.259 209.482 320.396 207.172C319.533 204.861 318.326 203.706 316.778 203.706C316.016 203.706 315.356 203.909 314.797 204.315C314.264 204.696 313.769 205.382 313.312 206.372C312.855 207.362 312.512 208.822 312.284 210.752C312.055 212.656 311.941 215.018 311.941 217.836C311.941 221.772 312.144 224.844 312.55 227.053C312.956 229.262 313.49 230.734 314.15 231.471C314.81 232.182 315.673 232.537 316.74 232.537C320.04 232.537 321.691 227.637 321.691 217.836ZM344.961 232.042C345.52 232.372 346.205 232.537 347.018 232.537C347.83 232.537 348.503 232.372 349.036 232.042C349.57 231.687 350.065 231.026 350.522 230.062C350.979 229.071 351.322 227.586 351.55 225.606C351.779 223.6 351.893 221.073 351.893 218.026C351.893 215.056 351.779 212.593 351.55 210.638C351.322 208.683 350.966 207.223 350.484 206.258C350.027 205.268 349.532 204.595 348.998 204.239C348.465 203.884 347.805 203.706 347.018 203.706C346.231 203.706 345.558 203.884 344.999 204.239C344.466 204.595 343.958 205.268 343.476 206.258C343.019 207.223 342.676 208.683 342.448 210.638C342.219 212.567 342.105 215.03 342.105 218.026C342.105 221.073 342.206 223.587 342.409 225.567C342.638 227.548 342.981 229.033 343.438 230.023C343.92 231.014 344.428 231.687 344.961 232.042ZM349.227 237.603C348.592 237.679 347.856 237.717 347.018 237.717C346.18 237.717 345.431 237.679 344.771 237.603C344.136 237.526 343.4 237.336 342.562 237.031C341.724 236.727 340.988 236.308 340.353 235.774C339.743 235.241 339.109 234.48 338.449 233.489C337.788 232.499 337.255 231.331 336.849 229.985C336.443 228.64 336.1 226.951 335.821 224.92C335.567 222.863 335.44 220.565 335.44 218.026C335.44 215.487 335.567 213.215 335.821 211.209C336.1 209.178 336.455 207.489 336.887 206.144C337.319 204.798 337.865 203.643 338.525 202.678C339.185 201.688 339.82 200.939 340.429 200.431C341.064 199.897 341.8 199.491 342.638 199.212C343.501 198.907 344.238 198.717 344.847 198.641C345.482 198.564 346.205 198.526 347.018 198.526C347.83 198.526 348.541 198.564 349.151 198.641C349.785 198.717 350.522 198.907 351.36 199.212C352.198 199.491 352.921 199.897 353.531 200.431C354.165 200.939 354.813 201.688 355.473 202.678C356.133 203.643 356.666 204.798 357.073 206.144C357.504 207.489 357.847 209.178 358.101 211.209C358.38 213.215 358.52 215.487 358.52 218.026C358.52 220.565 358.38 222.863 358.101 224.92C357.847 226.951 357.517 228.64 357.111 229.985C356.704 231.331 356.171 232.499 355.511 233.489C354.876 234.48 354.242 235.241 353.607 235.774C352.997 236.308 352.274 236.727 351.436 237.031C350.598 237.336 349.862 237.526 349.227 237.603Z" fill="#A12568"/>
<defs>
<linearGradient id="paint0_linear_7_2" x1="347.509" y1="316.289" x2="267.164" y2="357.006" gradientUnits="userSpaceOnUse">
<stop stop-color="#2A0944"/>
<stop offset="1" stop-color="#3B185F"/>
</linearGradient>
<linearGradient id="paint1_linear_7_2" x1="41.7985" y1="174.677" x2="66.4275" y2="117.004" gradientUnits="userSpaceOnUse">
<stop stop-color="#3B185F"/>
<stop offset="1" stop-color="#2A0944"/>
</linearGradient>
<linearGradient id="paint2_linear_7_2" x1="361.694" y1="230.413" x2="340.805" y2="289.542" gradientUnits="userSpaceOnUse">
<stop stop-color="#3B185F"/>
<stop offset="1" stop-color="#2A0944"/>
</linearGradient>
</defs>
</svg>
